<svg version="1.2" xmlns="http://www.w3.org/2000/svg" viewBox="0 0 271 89" width="271" height="89"><defs><clipPath clipPathUnits="userSpaceOnUse" id="cp1"><path d="m0 0h270.46v88.16h-270.46z"/></clipPath></defs><style>.a{fill:#fff}</style><g clip-path="url(#cp1)"><path class="a" d="m3.4 15.9h-2.8v-15.3h2.8v6.5h6.8v-6.5h2.8v15.3h-2.8v-6.6h-6.8z"/><path class="a" d="m129.2 15.9h-2.6v-8.8h-1.7v-1.9h1.7v-1.8c0-2.6 1.4-3.4 3.6-3.4 0.7 0 1.2 0.1 1.4 0.1v2c-0.1 0-0.4-0.1-0.9-0.1-1 0-1.5 0.4-1.5 1.6v1.6h2.3v1.9h-2.3z"/><path class="a" d="m163.1 8.3c0 4 1.6 5.8 4.2 5.8 2.3 0 3.7-1.4 3.8-3.9l0.1-0.2h-3.9v-2.1h6.5v8h-2.3v-2.2c-0.8 1.4-2.3 2.5-4.6 2.5-4.2 0-6.7-2.9-6.7-7.8 0-5 2.9-8.1 7.1-8.1 3.5 0 5.8 1.7 6.1 4.7h-2.8c-0.2-1.6-1.5-2.6-3.3-2.6-2.7 0-4.2 2.2-4.2 5.9z"/><path class="a" d="m3.4 63.9h-2.8v-15.3h2.8v6.5h6.8v-6.5h2.8v15.3h-2.8v-6.6h-6.8z"/><path fill-rule="evenodd" class="a" d="m15.9 58.5c0-3.4 2-5.6 5.2-5.6 3.2 0 5.1 2.2 5.1 5.6 0 3.5-2 5.6-5.1 5.6-3.3 0-5.2-2.1-5.2-5.6zm2.8 0c0 2.3 0.7 3.7 2.4 3.7 1.7 0 2.4-1.5 2.4-3.7 0-2.2-0.7-3.7-2.4-3.7-1.7 0-2.4 1.5-2.4 3.7z"/><path class="a" d="m35.6 56.8c-0.1-1.1-0.7-2-2-2-1.8 0-2.4 1.7-2.4 3.7 0 1.9 0.4 3.7 2.4 3.7 1.6 0 2.1-1.2 2.1-2.1h2.6c-0.1 2.7-2.1 4-4.8 4-3.3 0-5.1-2.1-5.1-5.6 0-3.3 2-5.6 5.2-5.6 2.6 0 4.5 1.3 4.7 3.9z"/><path class="a" d="m47.8 57.5c0-0.8 0-1.4-0.3-1.9-0.3-0.4-0.9-0.6-1.5-0.6-1.6 0-2.4 1-2.4 2.6v6.3h-2.7v-15.8h2.7v6.8c0.5-1 1.6-1.9 3.4-1.9 2.4 0 3.5 1.2 3.5 3.8v7.1h-2.7z"/><path class="a" d="m59.3 56.1c-0.1-0.8-0.7-1.4-1.8-1.4-1 0-1.6 0.6-1.6 1.4 0 0.7 0.4 1 1.3 1.2l1.8 0.2c2 0.3 3 1.2 3 3.1 0 2.3-1.8 3.5-4.4 3.5-2.8 0-4.4-1.2-4.5-3.3h2.5c0 0.8 0.5 1.5 2 1.5 1.2 0 1.9-0.5 1.9-1.4 0-0.7-0.3-1.1-1.4-1.2l-1.7-0.2c-1.9-0.3-3-1.2-3-3.1 0-1.9 1.4-3.5 4.2-3.5 2.6 0 4 1.3 4.1 3.2z"/><path class="a" d="m71.4 56.8c-0.1-1.1-0.8-2-2.1-2-1.7 0-2.4 1.7-2.4 3.7 0 1.9 0.5 3.7 2.4 3.7 1.6 0 2.1-1.2 2.2-2.1h2.6c-0.2 2.7-2.2 4-4.8 4-3.3 0-5.2-2.1-5.2-5.6 0-3.3 2-5.6 5.2-5.6 2.6 0 4.6 1.3 4.7 3.9z"/><path class="a" d="m83.6 57.5c0-0.8-0.1-1.4-0.4-1.9q-0.4-0.6-1.5-0.6c-1.6 0-2.4 1-2.4 2.6v6.3h-2.7v-15.8h2.7v6.8h0.1c0.4-1 1.6-1.9 3.3-1.9 2.4 0 3.6 1.2 3.6 3.8v7.1h-2.7z"/><path class="a" d="m92.2 59.5c0 0.8 0.1 1.5 0.4 1.9 0.3 0.5 0.8 0.7 1.4 0.7 1.6 0 2.4-1.1 2.4-3.1v-5.8h2.7v10.7h-2.6v-1.8c-0.6 1.1-1.7 2-3.4 2-2.4 0-3.5-1.2-3.5-3.7v-7.2h2.6z"/><path class="a" d="m102.6 48.1h2.7v15.8h-2.7z"/><path fill-rule="evenodd" class="a" d="m113.1 64.1c-3.4 0-5.1-2.2-5.1-5.6 0-3.2 1.9-5.6 5.1-5.6 3.5 0 4.9 2.4 4.9 5.4v0.9h-7.3c0.1 2 0.9 3.1 2.5 3.1 1.4 0 1.9-0.8 2-1.4h2.7c-0.4 2-2.1 3.2-4.8 3.2zm2.2-6.7c-0.1-1.6-0.8-2.7-2.2-2.7-1.4 0-2.2 1.1-2.4 2.8h4.6z"/><path class="a" d="m129.2 63.9h-2.6v-8.8h-1.7v-1.9h1.7v-1.8c0-2.6 1.4-3.4 3.6-3.4 0.7 0 1.2 0.1 1.4 0.1v2c-0.1 0-0.4-0.1-0.9-0.1-1 0-1.5 0.4-1.5 1.6v1.6h2.3v1.9h-2.3z"/><path class="a" d="m136.3 59.5c0 0.8 0 1.5 0.3 1.9 0.3 0.5 0.8 0.7 1.5 0.7 1.6 0 2.4-1.1 2.4-3.1v-5.8h2.6v10.7h-2.5v-1.8h-0.1c-0.5 1.1-1.6 2-3.3 2-2.4 0-3.6-1.2-3.6-3.7v-7.2h2.7zm-1.1-10.9h2.4v2.4h-2.4zm4 0h2.4v2.5h-2.4z"/><path class="a" d="m146.6 53.2h2.6v2.2c0.6-1.5 2-2.4 3.5-2.4h0.2v2.5h-0.5c-1.9 0-3.1 0.8-3.1 2.9v5.5h-2.7z"/><path class="a" d="m163.1 56.3c0 4 1.6 5.8 4.2 5.8 2.3 0 3.7-1.4 3.8-3.9l0.1-0.2h-3.9v-2.1h6.5v8h-2.3v-2.2c-0.8 1.4-2.3 2.5-4.6 2.5-4.2 0-6.7-2.9-6.7-7.8 0-5 2.9-8.1 7.1-8.1 3.5 0 5.8 1.7 6.1 4.7h-2.8c-0.2-1.6-1.5-2.6-3.3-2.6-2.7 0-4.2 2.2-4.2 5.9z"/><path fill-rule="evenodd" class="a" d="m181.7 64.1c-3.4 0-5.1-2.2-5.1-5.6 0-3.2 1.9-5.6 5.1-5.6 3.5 0 4.9 2.4 4.9 5.4v0.9h-7.3c0.1 2 0.9 3.1 2.5 3.1 1.4 0 1.9-0.8 2-1.4h2.7c-0.4 2-2.1 3.2-4.8 3.2zm2.2-6.7c-0.1-1.6-0.8-2.7-2.2-2.7-1.4 0-2.2 1.1-2.4 2.8h4.6z"/><path class="a" d="m194.8 56.1c-0.1-0.8-0.7-1.4-1.8-1.4-1 0-1.6 0.6-1.6 1.4 0 0.7 0.4 1 1.3 1.2l1.8 0.2c2 0.3 3 1.2 3 3.1 0 2.3-1.8 3.5-4.4 3.5-2.8 0-4.4-1.2-4.5-3.3h2.5c0 0.8 0.5 1.5 2 1.5 1.2 0 1.9-0.5 1.9-1.4 0-0.7-0.3-1.1-1.4-1.2l-1.7-0.2c-1.9-0.3-3-1.2-3-3.1 0-1.9 1.4-3.5 4.2-3.5 2.6 0 4 1.3 4.1 3.2z"/><path class="a" d="m203.4 50.2v3h2.4v1.9h-2.4v5.3c0 1.1 0.4 1.5 1.5 1.5 0.5 0 1 0 1 0v2c-0.3 0-1 0.1-1.9 0.1-2.1 0-3.3-0.9-3.3-3.1v-5.8h-1.7v-1.9h0.4c1.4 0 1.6-0.3 1.6-2.2v-0.8z"/><path fill-rule="evenodd" class="a" d="m208.4 56.3c0.1-2.1 1.7-3.3 4.4-3.3 3.2 0 4.4 1.3 4.4 4.1v3.9c0 0.7 0.2 1 0.9 1v1.9h-0.7c-1.6 0-2.3-0.4-2.6-1.6-0.7 1.1-1.8 1.7-3.3 1.7-2.2 0-3.5-1.2-3.5-3.1q-0.1-1.9 1.6-2.7c1.1-0.6 2.7-0.7 5-0.8v-0.6q0-2.1-1.8-2.1c-1.2 0-1.7 0.7-1.8 1.6zm6.2 2.9v-0.3c-1.9 0.1-2.9 0.3-3.4 0.7q-0.6 0.5-0.6 1.2c0 0.8 0.6 1.4 1.6 1.4 1.2 0 2.4-0.9 2.4-3z"/><path class="a" d="m220.7 48.1h2.7v15.8h-2.7z"/><path class="a" d="m229.9 50.2v3h2.5v1.9h-2.4v5.3c0 1.1 0.4 1.5 1.5 1.5 0.4 0 1 0 1 0v2c-0.3 0-1.1 0.1-2 0.1-2.1 0-3.2-0.9-3.2-3.1v-5.8h-1.7v-1.9h0.3c1.4 0 1.7-0.3 1.7-2.2v-0.8z"/><path class="a" d="m237.6 59.5c0 0.8 0 1.5 0.3 1.9 0.3 0.5 0.8 0.7 1.5 0.7 1.6 0 2.3-1.1 2.3-3.1v-5.8h2.7v10.7h-2.6v-1.8c-0.5 1.1-1.6 2-3.3 2-2.4 0-3.6-1.2-3.6-3.7v-7.2h2.7z"/><path class="a" d="m254.8 57.5c0-0.7 0-1.4-0.3-1.9-0.3-0.4-0.9-0.6-1.5-0.6-1.6 0-2.4 1-2.4 2.6v6.3h-2.7v-10.7h2.6v1.8c0.6-1.1 1.7-2 3.5-2 2.4 0 3.5 1.2 3.5 3.8v7.1h-2.7z"/><path fill-rule="evenodd" class="a" d="m260.5 64.6h2.6c0.2 0.9 0.7 1.4 2.2 1.4 1.7 0 2.6-0.7 2.6-2.8v-1.5h-0.1c-0.4 0.9-1.5 1.9-3.2 1.9-2.6 0-4.4-1.5-4.4-5.3 0-3.4 1.9-5.3 4.5-5.3 1.7 0 2.7 0.8 3.1 1.7h0.1v-1.5h2.6v10c0 3.2-1.9 4.6-5.2 4.6-2.9 0-4.6-1.1-4.8-3.2zm7.4-6.7c0-1.9-1-3-2.5-3-1.6 0-2.5 1.2-2.5 3.4 0 2.2 0.7 3.5 2.5 3.5 1.5 0 2.5-1.2 2.5-2.8z"/><path class="a" d="m8.6 76.7c-0.1-1.2-0.8-2.3-2.6-2.3-1.6 0-2.6 0.9-2.6 2.1 0 1.2 0.6 1.8 2.2 2.1l2.3 0.5c2.8 0.5 4 1.9 4 4.2 0 3.1-2.1 4.9-5.9 4.9-3.7 0-5.8-1.7-6-4.7h2.9c0.2 1.4 1.2 2.6 3.1 2.6 2.2 0 3-1.1 3-2.4 0-1.1-0.6-1.8-2.3-2.1l-2.2-0.5c-2.6-0.4-4-1.9-4-4.2 0-2.6 2.1-4.6 5.5-4.6 3.7 0 5.4 1.8 5.5 4.4z"/><path class="a" d="m21.5 80.8c-0.1-1.1-0.7-2-2-2-1.8 0-2.4 1.7-2.4 3.7 0 1.9 0.4 3.7 2.4 3.7 1.6 0 2.1-1.2 2.1-2.1h2.6c-0.1 2.7-2.1 4-4.8 4-3.3 0-5.1-2.1-5.1-5.6 0-3.3 2-5.6 5.2-5.6 2.6 0 4.5 1.3 4.7 3.9z"/><path class="a" d="m33.7 81.5c0-0.8 0-1.4-0.3-1.9-0.3-0.4-0.9-0.6-1.5-0.6-1.6 0-2.4 1-2.4 2.6v6.3h-2.7v-15.8h2.7v6.8c0.5-1 1.6-1.9 3.4-1.9 2.4 0 3.5 1.2 3.5 3.8v7.1h-2.7z"/><path class="a" d="m38.6 77.2h2.6l1.6 6c0.3 0.9 0.4 1.9 0.4 1.9h0.1c0 0 0.2-1 0.4-1.9l1.9-6h2.3l1.8 6c0.3 0.9 0.5 1.9 0.5 1.9 0 0 0.2-1 0.5-1.9l1.6-6h2.4l-3.1 10.7h-2.7l-1.5-5c-0.4-1.2-0.7-2.9-0.7-2.9h-0.1c0 0-0.4 1.7-0.7 2.9l-1.6 5h-2.6z"/><path fill-rule="evenodd" class="a" d="m56.6 80.3c0.1-2.1 1.7-3.3 4.4-3.3 3.2 0 4.4 1.3 4.4 4.1v3.9c0 0.7 0.2 1 0.9 1v1.9h-0.8c-1.6 0-2.2-0.4-2.5-1.6h-0.1c-0.6 1.1-1.7 1.7-3.3 1.7-2.1 0-3.5-1.2-3.5-3.1q0-1.9 1.6-2.7c1.1-0.6 2.8-0.7 5.1-0.8v-0.6q0-2.1-1.8-2.1c-1.3 0-1.8 0.7-1.8 1.6zm1.3-7.7h2.4v2.5h-2.4zm4.9 10.6v-0.3c-1.9 0.1-2.9 0.3-3.5 0.7-0.4 0.2-0.5 0.6-0.5 1.1 0 0.9 0.6 1.5 1.5 1.5 1.2 0 2.5-0.9 2.5-3zm-0.9-10.6h2.4v2.4h-2.4z"/><path fill-rule="evenodd" class="a" d="m68.8 72.1h2.7v6.8h0.1c0.5-1.1 1.6-1.9 3.2-1.9 2.4 0 4.3 1.5 4.3 5.5 0 3.7-1.8 5.6-4.5 5.6-1.6 0-2.6-0.8-3.2-1.8v1.6h-2.6zm7.6 10.3c0-2.2-0.7-3.6-2.5-3.6-1.5 0-2.4 1.3-2.4 3.1v1.1c0 1.8 0.8 3.2 2.5 3.2 1.5 0 2.4-1.3 2.4-3.8z"/><path class="a" d="m81.9 72.6h2.7v2.6h-2.7zm0 4.5h2.7v10.7h-2.7z"/><path class="a" d="m93.5 80.1c-0.1-0.8-0.7-1.4-1.7-1.4-1.1 0-1.7 0.6-1.7 1.4 0 0.7 0.4 1 1.3 1.2l1.8 0.2c2 0.3 3 1.2 3 3.1 0 2.3-1.8 3.5-4.4 3.5-2.8 0-4.4-1.2-4.5-3.3h2.5c0.1 0.8 0.5 1.5 2 1.5 1.2 0 1.9-0.5 1.9-1.4 0-0.7-0.2-1.1-1.4-1.2l-1.7-0.2c-1.9-0.3-3-1.2-3-3.1 0-1.9 1.4-3.5 4.2-3.5 2.7 0 4 1.3 4.1 3.2z"/><path class="a" d="m105.6 80.8c-0.1-1.1-0.7-2-2.1-2-1.7 0-2.4 1.7-2.4 3.7 0 1.9 0.5 3.7 2.4 3.7 1.6 0 2.1-1.2 2.2-2.1h2.6c-0.2 2.7-2.2 4-4.8 4-3.3 0-5.1-2.1-5.1-5.6 0-3.3 1.9-5.6 5.1-5.6 2.6 0 4.6 1.3 4.7 3.9z"/><path class="a" d="m117.8 81.5c0-0.8 0-1.4-0.4-1.9-0.3-0.4-0.8-0.6-1.4-0.6-1.6 0-2.4 1-2.4 2.6v6.3h-2.7v-15.8h2.7v6.8c0.5-1 1.6-1.9 3.3-1.9 2.4 0 3.6 1.2 3.6 3.8v7.1h-2.7z"/><path class="a" d="m131.7 80.3c0 4 1.5 5.8 4.1 5.8 2.4 0 3.8-1.4 3.9-3.9v-0.2h-3.9v-2.1h6.5v8h-2.3v-2.2c-0.8 1.4-2.3 2.5-4.6 2.5-4.2 0-6.7-2.9-6.7-7.8 0-5 2.9-8.1 7.2-8.1 3.4 0 5.7 1.7 6 4.7h-2.8c-0.2-1.6-1.5-2.6-3.2-2.6-2.8 0-4.2 2.2-4.2 5.9z"/><path class="a" d="m145.8 77.2h2.6v1.8h0.1c0.5-1.1 1.6-2 3.4-2 1.8 0 2.8 0.8 3.2 2.2h0.1c0.4-1.1 1.6-2.2 3.5-2.2 2.3 0 3.5 1.2 3.5 3.8v7.1h-2.7v-6.4c0-0.8 0-1.4-0.3-1.9q-0.6-0.6-1.5-0.6c-1.5 0-2.3 1-2.3 2.6v6.3h-2.7v-6.4c0-0.8-0.1-1.4-0.4-1.9q-0.4-0.6-1.4-0.6c-1.6 0-2.4 1-2.4 2.6v6.3h-2.7z"/><path class="a" d="m168.2 83.5c0 0.8 0 1.5 0.3 1.9 0.3 0.5 0.8 0.7 1.5 0.7 1.6 0 2.3-1.1 2.3-3.1v-5.8h2.7v10.7h-2.6v-1.8c-0.5 1.1-1.6 2-3.3 2-2.4 0-3.6-1.2-3.6-3.7v-7.2h2.7zm-1.2-10.9h2.5v2.4h-2.5zm4.1 0h2.4v2.5h-2.4z"/><path class="a" d="m185.4 81.5c0-0.7 0-1.4-0.3-1.9-0.3-0.4-0.9-0.6-1.5-0.6-1.6 0-2.4 1-2.4 2.6v6.3h-2.7v-10.7h2.6v1.8c0.6-1.1 1.7-2 3.5-2 2.4 0 3.5 1.2 3.5 3.8v7.1h-2.7z"/><path fill-rule="evenodd" class="a" d="m201.1 87.9h-2.6v-1.7c-0.6 1-1.6 1.9-3.3 1.9-2.6 0-4.4-1.6-4.4-5.5 0-3.7 1.9-5.6 4.6-5.6 1.5 0 2.5 0.7 3 1.7v-6.6h2.7zm-2.6-5.8c0-2-1-3.2-2.5-3.2-1.6 0-2.5 1.3-2.5 3.7 0 2.2 0.7 3.7 2.4 3.7 1.6 0 2.6-1.3 2.6-3z"/></g></svg>