<svg version="1.2" xmlns="http://www.w3.org/2000/svg" viewBox="0 0 174 17" width="174" height="17"><style>.a{fill:#fff}</style><path class="a" d="m2.8 15.9h-2.8v-15.3h2.8v6.5h6.8v-6.5h2.8v15.3h-2.8v-6.6h-6.8z"/><path class="a" d="m128.6 15.9h-2.7v-8.8h-1.6v-1.9h1.6v-1.8c0-2.6 1.5-3.4 3.7-3.4 0.7 0 1.2 0.1 1.4 0.1v2c-0.1 0-0.5-0.1-0.9-0.1-1 0-1.5 0.4-1.5 1.6v1.6h2.2v1.9h-2.2z"/><path class="a" d="m162.5 8.3c0 4 1.6 5.8 4.1 5.8 2.4 0 3.8-1.4 3.9-3.9v-0.2h-3.9v-2.1h6.6v8h-2.3v-2.2h-0.1c-0.7 1.4-2.2 2.5-4.5 2.5-4.2 0-6.7-2.9-6.7-7.8 0-5 2.9-8.1 7.1-8.1 3.5 0 5.7 1.7 6.1 4.7h-2.8c-0.3-1.6-1.5-2.6-3.3-2.6-2.7 0-4.2 2.2-4.2 5.9z"/></svg>