<svg width="162" height="24" viewBox="0 0 162 24" fill="none" xmlns="http://www.w3.org/2000/svg">
<g clip-path="url(#clip0_130_676)">
<path d="M162 0H0V24H162V0Z" fill="white"/>
<path d="M30.4798 16.7152H28.7998V7.53516H30.4798V11.4472H34.5718V7.53516H36.2518V16.7152H34.5718V12.7792H30.4798V16.7152Z" fill="black"/>
<path d="M105.96 16.716H104.364V11.472H103.368V10.32H104.364V9.26401C104.364 7.70401 105.228 7.20001 106.548 7.20001C106.956 7.20001 107.28 7.24801 107.4 7.27201V8.44801C107.328 8.43601 107.124 8.40001 106.836 8.40001C106.26 8.40001 105.96 8.64001 105.96 9.37201V10.32H107.304V11.472H105.96V16.716Z" fill="black"/>
<path d="M126.312 12.1799C126.312 14.5799 127.236 15.6599 128.784 15.6599C130.212 15.6599 131.052 14.8079 131.112 13.3319L131.124 13.1759H128.784V11.9159H132.696V16.7159H131.34V15.4439H131.304C130.86 16.2599 129.96 16.9079 128.556 16.9079C126.048 16.9079 124.536 15.2039 124.536 12.2279C124.536 9.23987 126.3 7.40387 128.832 7.40387C130.92 7.40387 132.264 8.41187 132.48 10.1879H130.776C130.644 9.25187 129.876 8.63987 128.832 8.63987C127.2 8.63987 126.312 9.93587 126.312 12.1799Z" fill="black"/>
</g>
<defs>
<clipPath id="clip0_130_676">
<rect width="162" height="24" fill="white"/>
</clipPath>
</defs>
</svg>
